<svg version="1.1" id="Layer_1" xmlns="http://www.w3.org/2000/svg" xmlns:xlink="http://www.w3.org/1999/xlink" x="0px" y="0px"
	 width="100%" viewBox="0 0 180 180" enable-background="new 0 0 180 180" xml:space="preserve">
<path fill="#EFBF05" opacity="1.000000" stroke="none" 
	d="
M0.999998,110.000000 
	C1.000000,97.312439 1.000000,84.624878 1.309561,71.807343 
	C2.051392,71.190460 2.780982,70.753670 2.872740,70.209366 
	C5.650553,53.731220 14.059702,40.077057 25.330181,28.373459 
	C37.758102,15.467934 52.781204,6.563797 70.821449,3.491206 
	C71.664604,3.347600 72.279045,1.861088 73.000000,1.000000 
	C84.687561,1.000000 96.375122,1.000000 108.200699,1.216852 
	C109.588120,2.158247 110.752991,3.214899 112.099579,3.557691 
	C133.521347,9.010869 150.914764,20.442783 164.051880,38.274086 
	C171.452255,48.318817 176.819168,59.267139 179.109543,71.629311 
	C179.212296,72.183922 180.346329,72.547462 181.000000,73.000000 
	C181.000000,84.687561 181.000000,96.375122 180.806396,108.157234 
	C178.846344,107.515770 176.655441,107.216232 175.379684,105.975609 
	C163.778687,94.694000 152.337280,83.248268 140.597626,71.646332 
	C138.312653,67.930489 135.328445,67.904900 131.727936,68.980423 
	C130.048248,67.494179 128.634445,66.191658 127.011887,64.617165 
	C124.519508,63.515713 121.583199,61.417027 120.114479,62.172279 
	C118.201759,63.155869 116.601700,66.321892 116.372665,68.694092 
	C115.807312,74.549576 116.100571,80.487953 115.771637,86.291840 
	C114.999771,85.873322 114.504974,85.555969 113.563660,85.072266 
	C103.753029,84.763817 94.388916,84.621712 84.805687,84.260178 
	C78.184471,77.685593 71.782379,71.330429 65.229637,64.784561 
	C62.707298,63.711845 59.999599,61.710464 58.066826,62.290634 
	C56.425880,62.783203 55.466412,66.175179 54.613308,68.438019 
	C54.061321,69.902168 54.243782,71.643219 53.827370,73.111038 
	C53.061287,72.599525 52.564960,72.237167 51.830181,71.635567 
	C49.329048,70.500923 46.419418,68.306450 44.963699,69.031410 
	C43.045132,69.986877 41.592831,73.113098 41.157486,75.525719 
	C40.488838,79.231262 40.856644,83.123817 40.556580,86.834717 
	C39.914753,86.450516 39.500984,86.168617 38.855862,85.593369 
	C35.235924,84.067085 33.632885,86.292961 32.584789,88.787193 
	C31.002438,92.552826 33.091705,95.096016 36.192436,97.418732 
	C37.847092,99.121246 39.338058,100.559410 40.899837,102.429512 
	C41.144176,106.636230 40.057777,110.806534 44.485352,113.519714 
	C65.090630,134.197983 85.479439,154.659912 105.801399,175.188019 
	C107.101517,176.501343 107.883873,178.327240 108.573090,179.978592 
	C108.159393,180.361679 108.079704,180.680832 108.000000,181.000000 
	C96.645775,181.000000 85.291542,181.000000 73.807526,180.688324 
	C73.022049,179.932404 72.425201,179.306320 71.701530,179.072144 
	C64.796768,176.837784 57.497917,175.439865 51.033134,172.311859 
	C39.841019,166.896500 30.090952,159.458145 21.951250,149.690689 
	C12.588532,138.455658 5.989336,126.147743 2.920552,111.881676 
	C2.763283,111.150574 1.661844,110.622566 0.999998,110.000000 
z"/>
<path fill="#756011" opacity="1.000000" stroke="none" 
	d="
M114.010178,85.238617 
	C114.504974,85.555969 114.999771,85.873322 115.878830,86.655113 
	C116.281479,95.745338 116.325325,104.371185 116.306732,112.996895 
	C116.298393,116.864357 117.215103,120.261108 121.771317,120.350189 
	C126.377167,120.440224 127.339340,117.130135 127.321762,113.198151 
	C127.249771,97.095314 127.248146,80.992172 127.220627,64.889137 
	C128.634445,66.191658 130.048248,67.494179 131.563202,69.317772 
	C131.090912,71.841858 130.055481,73.837158 130.021866,75.849182 
	C129.852646,85.981003 130.011353,96.117851 129.911972,106.251518 
	C129.872910,110.234619 130.910034,113.513458 135.402130,113.505417 
	C139.869354,113.497414 140.982452,110.188301 140.955002,106.240257 
	C140.875229,94.777328 140.878510,83.313820 140.849182,71.850540 
	C152.337280,83.248268 163.778687,94.694000 175.379684,105.975609 
	C176.655441,107.216232 178.846344,107.515770 180.806396,108.625893 
	C181.000000,109.444443 181.000000,109.888893 180.620850,110.622528 
	C179.578964,112.187866 178.611465,113.393806 178.298965,114.750610 
	C173.160202,137.062515 159.512512,153.267593 141.335449,166.142609 
	C131.560150,173.066589 120.391350,176.910645 108.907097,179.914673 
	C107.883873,178.327240 107.101517,176.501343 105.801399,175.188019 
	C85.479439,154.659912 65.090630,134.197983 44.892467,113.570862 
	C50.536942,113.244804 51.992393,111.962448 52.027138,106.764282 
	C52.104866,95.134888 52.062241,83.504684 52.068638,71.874809 
	C52.564960,72.237167 53.061287,72.599525 53.990227,73.466614 
	C54.514645,87.263229 54.641899,100.555016 54.675213,113.847046 
	C54.684414,117.519333 56.015797,120.187973 59.890865,120.382904 
	C63.820667,120.580597 65.627304,117.943703 65.625702,114.331024 
	C65.618416,97.879066 65.474854,81.427177 65.380287,64.975258 
	C71.782379,71.330429 78.184471,77.685593 84.344070,84.354492 
	C78.876595,84.668221 73.651619,84.668221 68.513359,84.668221 
	C68.513359,89.377106 68.513359,93.105576 68.513359,96.922279 
	C83.691162,96.922279 98.536522,96.922279 114.010178,96.922279 
	C114.010178,92.787415 114.010178,89.013016 114.010178,85.238617 
M148.878357,94.312241 
	C150.794662,88.416458 148.976273,85.375565 143.718231,85.418198 
	C143.718231,89.298820 143.718231,93.170006 143.718231,97.994301 
	C145.789566,96.649628 147.104355,95.796097 148.878357,94.312241 
z"/>
<path fill="#000000" opacity="1.000000" stroke="none" 
	d="
M181.000000,72.531342 
	C180.346329,72.547462 179.212296,72.183922 179.109543,71.629311 
	C176.819168,59.267139 171.452255,48.318817 164.051880,38.274086 
	C150.914764,20.442783 133.521347,9.010869 112.099579,3.557691 
	C110.752991,3.214899 109.588120,2.158247 108.669357,1.216852 
	C132.926865,1.000000 156.853714,1.000000 181.000000,1.000000 
	C181.000000,24.687109 181.000000,48.374897 181.000000,72.531342 
z"/>
<path fill="#000000" opacity="1.000000" stroke="none" 
	d="
M108.573090,179.978592 
	C120.391350,176.910645 131.560150,173.066589 141.335449,166.142609 
	C159.512512,153.267593 173.160202,137.062515 178.298965,114.750610 
	C178.611465,113.393806 179.578964,112.187866 180.620850,110.955864 
	C181.000000,134.261734 181.000000,157.523453 181.000000,181.000000 
	C156.979538,181.000000 132.958420,181.000000 108.468658,181.000000 
	C108.079704,180.680832 108.159393,180.361679 108.573090,179.978592 
z"/>
<path fill="#000000" opacity="1.000000" stroke="none" 
	d="
M72.531342,1.000000 
	C72.279045,1.861088 71.664604,3.347600 70.821449,3.491206 
	C52.781204,6.563797 37.758102,15.467934 25.330181,28.373459 
	C14.059702,40.077057 5.650553,53.731220 2.872740,70.209366 
	C2.780982,70.753670 2.051392,71.190460 1.309561,71.338684 
	C1.000000,47.738781 1.000000,24.477560 1.000000,1.000000 
	C24.687122,1.000000 48.374901,1.000000 72.531342,1.000000 
z"/>
<path fill="#000000" opacity="1.000000" stroke="none" 
	d="
M0.999998,110.468658 
	C1.661844,110.622566 2.763283,111.150574 2.920552,111.881676 
	C5.989336,126.147743 12.588532,138.455658 21.951250,149.690689 
	C30.090952,159.458145 39.841019,166.896500 51.033134,172.311859 
	C57.497917,175.439865 64.796768,176.837784 71.701530,179.072144 
	C72.425201,179.306320 73.022049,179.932404 73.338867,180.688324 
	C49.073647,181.000000 25.147297,181.000000 1.000000,181.000000 
	C1.000000,157.646240 1.000000,134.291779 0.999998,110.468658 
z"/>
<path fill="#FDFCFB" opacity="1.000000" stroke="none" 
	d="
M65.229637,64.784561 
	C65.474854,81.427177 65.618416,97.879066 65.625702,114.331024 
	C65.627304,117.943703 63.820667,120.580597 59.890865,120.382904 
	C56.015797,120.187973 54.684414,117.519333 54.675213,113.847046 
	C54.641899,100.555016 54.514645,87.263229 54.259987,73.615768 
	C54.243782,71.643219 54.061321,69.902168 54.613308,68.438019 
	C55.466412,66.175179 56.425880,62.783203 58.066826,62.290634 
	C59.999599,61.710464 62.707298,63.711845 65.229637,64.784561 
z"/>
<path fill="#FDFCFA" opacity="1.000000" stroke="none" 
	d="
M127.011887,64.617165 
	C127.248146,80.992172 127.249771,97.095314 127.321762,113.198151 
	C127.339340,117.130135 126.377167,120.440224 121.771317,120.350189 
	C117.215103,120.261108 116.298393,116.864357 116.306732,112.996895 
	C116.325325,104.371185 116.281479,95.745338 116.155891,86.756287 
	C116.100571,80.487953 115.807312,74.549576 116.372665,68.694092 
	C116.601700,66.321892 118.201759,63.155869 120.114479,62.172279 
	C121.583199,61.417027 124.519508,63.515713 127.011887,64.617165 
z"/>
<path fill="#FDFDFD" opacity="1.000000" stroke="none" 
	d="
M113.563660,85.072266 
	C114.010178,89.013016 114.010178,92.787415 114.010178,96.922279 
	C98.536522,96.922279 83.691162,96.922279 68.513359,96.922279 
	C68.513359,93.105576 68.513359,89.377106 68.513359,84.668221 
	C73.651619,84.668221 78.876595,84.668221 84.563187,84.573914 
	C94.388916,84.621712 103.753029,84.763817 113.563660,85.072266 
z"/>
<path fill="#FDFCFA" opacity="1.000000" stroke="none" 
	d="
M140.597626,71.646332 
	C140.878510,83.313820 140.875229,94.777328 140.955002,106.240257 
	C140.982452,110.188301 139.869354,113.497414 135.402130,113.505417 
	C130.910034,113.513458 129.872910,110.234619 129.911972,106.251518 
	C130.011353,96.117851 129.852646,85.981003 130.021866,75.849182 
	C130.055481,73.837158 131.090912,71.841858 131.829102,69.501488 
	C135.328445,67.904900 138.312653,67.930489 140.597626,71.646332 
z"/>
<path fill="#FEFDFB" opacity="1.000000" stroke="none" 
	d="
M51.830181,71.635567 
	C52.062241,83.504684 52.104866,95.134888 52.027138,106.764282 
	C51.992393,111.962448 50.536942,113.244804 44.660587,113.369781 
	C40.057777,110.806534 41.144176,106.636230 40.992695,101.970146 
	C40.938042,96.364899 40.861340,91.650963 40.784637,86.937019 
	C40.856644,83.123817 40.488838,79.231262 41.157486,75.525719 
	C41.592831,73.113098 43.045132,69.986877 44.963699,69.031410 
	C46.419418,68.306450 49.329048,70.500923 51.830181,71.635567 
z"/>
<path fill="#F4F1E5" opacity="1.000000" stroke="none" 
	d="
M36.028755,97.154388 
	C33.091705,95.096016 31.002438,92.552826 32.584789,88.787193 
	C33.632885,86.292961 35.235924,84.067085 38.716721,86.041306 
	C38.768776,89.256599 38.992496,91.776855 38.570515,94.183937 
	C38.376842,95.288666 36.915329,96.171135 36.028755,97.154388 
z"/>
<path fill="#7A6514" opacity="1.000000" stroke="none" 
	d="
M36.192436,97.418739 
	C36.915329,96.171135 38.376842,95.288666 38.570515,94.183937 
	C38.992496,91.776855 38.768776,89.256599 38.948074,86.334656 
	C39.500984,86.168617 39.914753,86.450516 40.556580,86.834717 
	C40.861340,91.650963 40.938042,96.364899 40.921886,101.538208 
	C39.338058,100.559410 37.847092,99.121246 36.192436,97.418739 
z"/>
<path fill="#EEEBE2" opacity="1.000000" stroke="none" 
	d="
M148.648743,94.627403 
	C147.104355,95.796097 145.789566,96.649628 143.718231,97.994301 
	C143.718231,93.170006 143.718231,89.298820 143.718231,85.418198 
	C148.976273,85.375565 150.794662,88.416458 148.648743,94.627403 
z"/>
</svg>